<svg width="64" height="64" viewBox="0 0 64 64" fill="none" xmlns="http://www.w3.org/2000/svg">
<path d="M43.9328 27.052C43.8752 25.7742 43.6687 24.8999 43.3759 24.1361C43.0686 23.3483 42.6605 22.6757 41.9932 22.0128C41.3259 21.3499 40.6585 20.9319 39.8712 20.6293C39.1078 20.3315 38.234 20.1297 36.957 20.0721C35.6751 20.0144 35.267 20 32.012 20C28.7521 20 28.3441 20.0144 27.067 20.0721C25.79 20.1297 24.9162 20.3363 24.1528 20.6293C23.3607 20.9367 22.6885 21.3451 22.026 22.0128C21.3635 22.6805 20.9458 23.3483 20.6433 24.1361C20.3505 24.8999 20.144 25.7742 20.0864 27.052C20.0288 28.3347 20.0144 28.743 20.0144 32C20.0144 35.2618 20.0288 35.6701 20.0864 36.948C20.144 38.2258 20.3505 39.1001 20.6433 39.8639C20.9506 40.6517 21.3587 41.3243 22.026 41.9872C22.6885 42.6549 23.3607 43.0681 24.148 43.3707C24.9114 43.6685 25.7852 43.8703 27.0622 43.9279C28.3441 43.9856 28.7521 44 32.0072 44C35.267 44 35.6751 43.9856 36.9522 43.9279C38.2292 43.8703 39.103 43.6637 39.8664 43.3707C40.6537 43.0633 41.3259 42.6549 41.9884 41.9872C42.6509 41.3195 43.0686 40.6517 43.3711 39.8639C43.6687 39.1001 43.8704 38.2258 43.928 36.948C43.9856 35.6653 44 35.257 44 32C44 28.743 43.9904 28.3299 43.9328 27.052ZM41.7771 36.8519C41.7243 38.024 41.5275 38.6629 41.3643 39.0809C41.1482 39.6381 40.8842 40.0416 40.4617 40.4644C40.0392 40.8871 39.6407 41.1417 39.079 41.3675C38.6565 41.5308 38.018 41.7278 36.8514 41.7806C35.5887 41.8383 35.2094 41.8527 32.0024 41.8527C28.7954 41.8527 28.4161 41.8383 27.1534 41.7806C25.982 41.7278 25.3435 41.5308 24.9258 41.3675C24.3689 41.1513 23.9656 40.8871 23.5431 40.4644C23.1206 40.0416 22.8662 39.6429 22.6405 39.0809C22.4773 38.6581 22.2804 38.0192 22.2276 36.8519C22.17 35.5885 22.1556 35.209 22.1556 32C22.1556 28.791 22.17 28.4115 22.2276 27.1481C22.2804 25.976 22.4773 25.3371 22.6405 24.9191C22.8566 24.3619 23.1206 23.9584 23.5431 23.5356C23.9656 23.1129 24.3641 22.8583 24.9258 22.6325C25.3483 22.4692 25.9868 22.2722 27.1534 22.2194C28.4161 22.1617 28.7954 22.1473 32.0024 22.1473C35.2094 22.1473 35.5887 22.1617 36.8514 22.2194C38.0228 22.2722 38.6613 22.4692 39.079 22.6325C39.6359 22.8487 40.0392 23.1129 40.4617 23.5356C40.8842 23.9584 41.1386 24.3571 41.3643 24.9191C41.5275 25.3419 41.7243 25.9808 41.7771 27.1481C41.8348 28.4115 41.8492 28.791 41.8492 32C41.8492 35.209 41.83 35.5885 41.7771 36.8519Z" fill="#FEFEFE"/>
<path d="M32.0024 25.8319C28.5938 25.8319 25.838 28.5941 25.838 32C25.838 35.4108 28.5986 38.1682 32.0024 38.1682C35.4063 38.1682 38.1669 35.4012 38.1669 32C38.1669 28.5893 35.4111 25.8319 32.0024 25.8319ZM32.0024 36.0016C29.794 36.0016 28.0032 34.2098 28.0032 32C28.0032 29.7903 29.794 27.9984 32.0024 27.9984C34.2109 27.9984 36.0016 29.7903 36.0016 32C36.0016 34.2098 34.2109 36.0016 32.0024 36.0016Z" fill="#FEFEFE"/>
<path d="M38.4069 27.0329C39.2024 27.0329 39.8472 26.3877 39.8472 25.5918C39.8472 24.7959 39.2024 24.1506 38.4069 24.1506C37.6115 24.1506 36.9666 24.7959 36.9666 25.5918C36.9666 26.3877 37.6115 27.0329 38.4069 27.0329Z" fill="#FEFEFE"/>
<path d="M20 32C20 35.2618 20.0144 35.6701 20.072 36.948C20.1296 38.2258 20.3361 39.1001 20.6289 39.8639C20.9362 40.6517 21.3443 41.3243 22.0116 41.9872C22.6741 42.6501 23.3463 43.0681 24.1336 43.3707C24.897 43.6685 25.7708 43.8703 27.0478 43.9279C28.3297 43.9856 28.7377 44 31.9928 44C35.2527 44 35.6607 43.9856 36.9378 43.9279C38.2148 43.8703 39.0886 43.6637 39.852 43.3707C40.6393 43.0633 41.3115 42.6549 41.974 41.9872C42.6365 41.3243 43.0542 40.6517 43.3567 39.8639C43.6543 39.1001 43.856 38.2258 43.9136 36.948C43.9712 35.6653 43.9856 35.257 43.9856 32C43.9856 28.7382 43.9712 28.3299 43.9136 27.052C43.856 25.7742 43.6495 24.8999 43.3567 24.1361C43.0494 23.3483 42.6413 22.6757 41.974 22.0128C41.3163 21.3451 40.6441 20.9319 39.8568 20.6293C39.0934 20.3315 38.2196 20.1297 36.9426 20.0721C35.6607 20.0144 35.2527 20 31.9976 20C28.7377 20 28.3297 20.0144 27.0526 20.0721C25.7756 20.1297 24.9018 20.3363 24.1384 20.6293C23.3511 20.9367 22.6789 21.3451 22.0164 22.0128C21.3539 22.6805 20.9362 23.3483 20.6337 24.1361C20.3361 24.8999 20.1296 25.7742 20.072 27.052C20.0144 28.3299 20 28.7382 20 32ZM22.1652 32C22.1652 28.7958 22.1796 28.4115 22.2372 27.1481C22.2901 25.976 22.4869 25.3371 22.6501 24.9191C22.8662 24.3619 23.1302 23.9584 23.5527 23.5356C23.9752 23.1129 24.3737 22.8583 24.9354 22.6325C25.3579 22.4692 25.9964 22.2722 27.163 22.2194C28.4257 22.1617 28.805 22.1473 32.012 22.1473C35.219 22.1473 35.5983 22.1617 36.861 22.2194C38.0324 22.2722 38.6709 22.4692 39.0886 22.6325C39.6455 22.8487 40.0488 23.1129 40.4713 23.5356C40.8938 23.9584 41.1482 24.3571 41.3739 24.9191C41.5371 25.3419 41.7339 25.9808 41.7868 27.1481C41.8444 28.4115 41.8588 28.791 41.8588 32C41.8588 35.209 41.8444 35.5885 41.7868 36.8519C41.7339 38.024 41.5371 38.6629 41.3739 39.0809C41.1578 39.6381 40.8938 40.0416 40.4713 40.4644C40.0488 40.8871 39.6503 41.1417 39.0886 41.3675C38.6661 41.5308 38.0276 41.7278 36.861 41.7806C35.5983 41.8383 35.219 41.8527 32.012 41.8527C28.805 41.8527 28.4257 41.8383 27.163 41.7806C25.9916 41.7278 25.3531 41.5308 24.9354 41.3675C24.3785 41.1513 23.9752 40.8871 23.5527 40.4644C23.1302 40.0416 22.8758 39.6429 22.6501 39.0809C22.4869 38.6581 22.2901 38.0192 22.2372 36.8519C22.1748 35.5885 22.1652 35.2042 22.1652 32Z" fill="#FEFEFE"/>
<rect x="0.5" y="0.5" width="63" height="63" stroke="#FEFEFE"/>
</svg>
