<svg width="64" height="64" viewBox="0 0 64 64" fill="none" xmlns="http://www.w3.org/2000/svg">
<g clip-path="url(#clip0_235_657)">
<path d="M20 23.2017C20 22.4295 20.2703 21.7924 20.8108 21.2905C21.3513 20.7886 22.0541 20.5376 22.9189 20.5376C23.7683 20.5376 24.4556 20.7847 24.9807 21.2789C25.5212 21.7886 25.7915 22.4526 25.7915 23.2712C25.7915 24.0125 25.529 24.6302 25.0039 25.1245C24.4633 25.6341 23.7529 25.8889 22.8726 25.8889H22.8494C22 25.8889 21.3127 25.6341 20.7876 25.1245C20.2625 24.6148 20 23.9739 20 23.2017ZM20.3012 43.472V27.9971H25.444V43.472H20.3012ZM28.2934 43.472H33.4363V34.831C33.4363 34.2905 33.4981 33.8735 33.6216 33.5801C33.8378 33.055 34.166 32.6109 34.6062 32.248C35.0463 31.8851 35.5984 31.7036 36.2626 31.7036C37.9923 31.7036 38.8571 32.8696 38.8571 35.2017V43.472H44V34.5994C44 32.3137 43.4595 30.5801 42.3784 29.3986C41.2973 28.2171 39.8687 27.6264 38.0927 27.6264C36.1004 27.6264 34.5483 28.4835 33.4363 30.1978V30.2442H33.4131L33.4363 30.1978V27.9971H28.2934C28.3243 28.4913 28.3398 30.0279 28.3398 32.6071C28.3398 35.1862 28.3243 38.8079 28.2934 43.472Z" fill="#FEFEFE"/>
</g>
<rect x="0.5" y="0.5" width="63" height="63" stroke="#FEFEFE"/>
<defs>
<clipPath id="clip0_235_657">
<rect width="24" height="24" fill="white" transform="translate(20 20)"/>
</clipPath>
</defs>
</svg>
