<svg width="64" height="64" viewBox="0 0 64 64" fill="none" xmlns="http://www.w3.org/2000/svg">
<path d="M41.057 27.1809C41.0663 27.3921 41.0663 27.5937 41.0663 27.8049C41.0755 34.2081 36.3711 41.6001 27.7678 41.6001C25.2304 41.6001 22.7392 40.8417 20.6 39.4209C20.9704 39.4689 21.3409 39.4881 21.7113 39.4881C23.8135 39.4881 25.8601 38.7585 27.5178 37.4049C25.5175 37.3665 23.7579 36.0129 23.1467 34.0353C23.8505 34.1793 24.5729 34.1505 25.2582 33.9489C23.0819 33.5073 21.5168 31.5201 21.5076 29.2065C21.5076 29.1873 21.5076 29.1681 21.5076 29.1489C22.1558 29.5233 22.8874 29.7345 23.6283 29.7537C21.5816 28.3329 20.9426 25.5009 22.1836 23.2833C24.5636 26.3169 28.0642 28.1505 31.824 28.3521C31.4444 26.6721 31.963 24.9057 33.1761 23.7153C35.0561 21.8817 38.0195 21.9777 39.7976 23.9265C40.844 23.7153 41.8535 23.3121 42.7703 22.7457C42.4184 23.8689 41.6868 24.8193 40.7144 25.4241C41.6405 25.3089 42.548 25.0497 43.4 24.6657C42.7703 25.6449 41.9738 26.4897 41.057 27.1809Z" fill="#FEFEFE"/>
<rect x="0.5" y="0.5" width="63" height="63" stroke="#FEFEFE"/>
</svg>
