<svg width="64" height="64" viewBox="0 0 64 64" fill="none" xmlns="http://www.w3.org/2000/svg">
<path d="M43.5057 26.2293C43.2289 25.2013 42.4184 24.3907 41.3904 24.114C39.5123 23.6 31.9999 23.6 31.9999 23.6C31.9999 23.6 24.4876 23.6 22.6095 24.0942C21.6013 24.371 20.771 25.2013 20.4942 26.2293C20 28.1074 20 32.0019 20 32.0019C20 32.0019 20 35.9162 20.4942 37.7745C20.771 38.8025 21.5815 39.6131 22.6095 39.8899C24.5074 40.4039 31.9999 40.4039 31.9999 40.4039C31.9999 40.4039 39.5123 40.4039 41.3904 39.9096C42.4184 39.6329 43.2289 38.8223 43.5057 37.7943C43.9999 35.9162 43.9999 32.0217 43.9999 32.0217C43.9999 32.0217 44.0197 28.1074 43.5057 26.2293Z" fill="#FEFEFE"/>
<path d="M29.6079 35.5999L35.855 32.0019L29.6079 28.4039V35.5999Z" fill="#006633"/>
<rect x="0.5" y="0.5" width="63" height="63" stroke="#FEFEFE"/>
</svg>
